<svg width="0" height="0" fill="none" style="visibility: hidden; position: absolute;" aria-hidden="true">
    <symbol id="up-icon" viewBox="0 0 24 24" fill="none" xmlns="http://www.w3.org/2000/svg">
        <path d="M5 15L10 9.84985C10.2563 9.57616 10.566 9.35814 10.9101 9.20898C11.2541 9.05983 11.625 8.98291 12 8.98291C12.375 8.98291 12.7459 9.05983 13.0899 9.20898C13.434 9.35814 13.7437 9.57616 14 9.84985L19 15"  stroke-width="1.5" stroke-linecap="round" stroke-linejoin="round"/>
    </symbol>

    <symbol id="loader-icon" viewBox="0 0 24 24" fill="none" xmlns="http://www.w3.org/2000/svg">
        <path d="M12 3V6M12 18V21M6 12H3M21 12H18M5.63672 5.63672L7.75977 7.75977M16.2422 16.2422L18.3633 18.3633M18.3652 5.63477L16.2441 7.75586M7.75781 16.2422L5.63477 18.3652" stroke-width="2" stroke-linecap="round" stroke-linejoin="round"/>
    </symbol>

    <symbol id="cross-icon" viewBox="0 0 24 24" fill="none" xmlns="http://www.w3.org/2000/svg">
        <path fill='black' d="M6.99486 7.00636C6.60433 7.39689 6.60433 8.03005 6.99486 8.42058L10.58 12.0057L6.99486 15.5909C6.60433 15.9814 6.60433 16.6146 6.99486 17.0051C7.38538 17.3956 8.01855 17.3956 8.40907 17.0051L11.9942 13.4199L15.5794 17.0051C15.9699 17.3956 16.6031 17.3956 16.9936 17.0051C17.3841 16.6146 17.3841 15.9814 16.9936 15.5909L13.4084 12.0057L16.9936 8.42059C17.3841 8.03007 17.3841 7.3969 16.9936 7.00638C16.603 6.61585 15.9699 6.61585 15.5794 7.00638L11.9942 10.5915L8.40907 7.00636C8.01855 6.61584 7.38538 6.61584 6.99486 7.00636Z" />
    </symbol>
</svg>